<?xml version="1.0" encoding="iso-8859-1"?>
<!-- Generator: Adobe Illustrator 19.0.0, SVG Export Plug-In . SVG Version: 6.00 Build 0)  -->
<svg version="1.1" id="Capa_1" xmlns="http://www.w3.org/2000/svg" xmlns:xlink="http://www.w3.org/1999/xlink" x="0px" y="0px"
	 viewBox="0 0 512 512" style="enable-background:new 0 0 512 512;" xml:space="preserve">
<g>
	<polygon style="fill:#FEA832;" points="512,165 496.528,150 432.324,150 422,165 422,257 432.78,272 495.597,272 512,257 	"/>
	<path style="fill:#FEA832;" d="M422,437c0,8.291,6.709,15,15,15h30c24.814,0,45-20.186,45-45v-60l-15.486-15h-63.252L422,347V437z"
		/>
</g>
<g>
	<path style="fill:#FFCC33;" d="M512,105c0-24.814-20.186-45-45-45h-30c-8.291,0-15,6.709-15,15v90h90V105z"/>
	<rect x="422" y="257" style="fill:#FFCC33;" width="90" height="90"/>
</g>
<path style="fill:#FD003A;" d="M452,45c0-24.901-20.098-45-45-45H90C65.098,0,45,20.099,45,45v422c0,24.899,20.098,45,45,45h317
	c24.902,0,45-20.101,45-45V45z"/>
<path style="fill:#E50027;" d="M452,257v210c0,24.899-20.098,45-45,45H90c-24.902,0-45-20.101-45-45V257H452z"/>
<path style="fill:#B7E0F6;" d="M120,287H30c-16.569,0-30-13.431-30-30l0,0c0-16.569,13.431-30,30-30h90c16.569,0,30,13.431,30,30
	l0,0C150,273.569,136.569,287,120,287z"/>
<path style="fill:#A4D9F5;" d="M30,287h90c16.567,0,30-13.433,30-30H0C0,273.567,13.433,287,30,287z"/>
<path style="fill:#B7E0F6;" d="M120,135H30c-16.569,0-30-13.431-30-30l0,0c0-16.569,13.431-30,30-30h90c16.569,0,30,13.431,30,30
	l0,0C150,121.569,136.569,135,120,135z"/>
<path style="fill:#A4D9F5;" d="M120,437H30c-16.569,0-30-13.431-30-30l0,0c0-16.569,13.431-30,30-30h90c16.569,0,30,13.431,30,30
	l0,0C150,423.569,136.569,437,120,437z"/>
<path style="fill:#CAE8F9;" d="M347,272c-8.401,0-15-6.601-15-15c0-24.901-20.098-45-45-45s-45,20.099-45,45
	c0,24.899,20.098,45,45,45c11.7,0,21.899-4.501,30-11.7c29.099,26.4,75,5.4,75-33.3c0-57.9-47.102-105-105-105s-105,47.1-105,105
	c0,36,17.999,69,48.6,88.5c31.798,20.4,69.899,21.599,104.399,5.7c17.999-8.401,5.101-35.7-12.601-27.301
	c-25.796,12.001-53.397,10.499-75.601-3.6C224.898,306.2,212,282.8,212,257c0-41.4,33.6-75,75-75s75,33.6,75,75
	C362,265.399,355.401,272,347,272z M301.7,258.8c-0.901,7.5-7.2,13.2-14.7,13.2c-8.401,0-15-6.601-15-15c0-8.401,6.599-15,15-15
	c7.8,0,14.099,6.299,14.7,14.099V258.8z"/>
<g>
	<path style="fill:#B7E0F6;" d="M334.999,351.2c-34.501,15.899-72.601,14.7-104.399-5.7C199.999,326,182,293,182,257h30
		c0,25.8,12.898,49.2,34.797,63.3c22.203,14.099,49.805,15.601,75.601,3.6C340.101,315.5,352.999,342.8,334.999,351.2z"/>
	<path style="fill:#B7E0F6;" d="M392,257c0,38.699-45.901,59.7-75,33.3c-8.101,7.2-18.3,11.7-30,11.7c-24.902,0-45-20.101-45-45h30
		c0,8.399,6.599,15,15,15c7.5,0,13.799-5.7,14.7-13.2V257H332c0,8.399,6.599,15,15,15s15-6.601,15-15H392z"/>
</g>
<g>
</g>
<g>
</g>
<g>
</g>
<g>
</g>
<g>
</g>
<g>
</g>
<g>
</g>
<g>
</g>
<g>
</g>
<g>
</g>
<g>
</g>
<g>
</g>
<g>
</g>
<g>
</g>
<g>
</g>
</svg>
