<?xml version="1.0" encoding="iso-8859-1"?>
<!-- Generator: Adobe Illustrator 19.0.0, SVG Export Plug-In . SVG Version: 6.00 Build 0)  -->
<svg version="1.1" id="Capa_1" xmlns="http://www.w3.org/2000/svg" xmlns:xlink="http://www.w3.org/1999/xlink" x="0px" y="0px"
	 viewBox="0 0 512 512" style="enable-background:new 0 0 512 512;" xml:space="preserve">
<path style="fill:#D4F3FF;" d="M448.801,32.134H15c-8.284,0-15,6.716-15,15v401.667c0,8.284,6.716,15,15,15h229.631
	c8.284,0,15-6.716,15-15c0-4.143-1.679-7.893-4.394-10.607l182.957-182.955c2.714,2.714,6.464,4.394,10.607,4.394
	c8.284,0,15-6.716,15-15V47.134C463.801,38.85,457.085,32.134,448.801,32.134z"/>
<path style="fill:#96E2FF;" d="M448.801,32.134H231.9v431.667h12.73c8.284,0,15-6.716,15-15c0-4.143-1.679-7.893-4.394-10.607
	l182.957-182.955c2.714,2.715,6.464,4.394,10.607,4.394c8.284,0,15-6.716,15-15V47.134C463.801,38.85,457.085,32.134,448.801,32.134
	z"/>
<circle style="fill:#D4F3FF;" cx="352.4" cy="352.4" r="144.6"/>
<path style="fill:#96E2FF;" d="M352.4,207.801V497c79.86,0,144.6-64.74,144.6-144.6S432.26,207.801,352.4,207.801z"/>
<path style="fill:#004B7D;" d="M352.4,512c-88.004,0-159.6-71.596-159.6-159.6s71.596-159.6,159.6-159.6S512,264.397,512,352.4
	S440.404,512,352.4,512z M352.4,222.801c-71.462,0-129.6,58.138-129.6,129.6S280.938,482,352.4,482S482,423.862,482,352.4
	S423.862,222.801,352.4,222.801z"/>
<path style="fill:#663E2C;" d="M400.6,367.4h-48.2c-8.284,0-15-6.716-15-15v-48.2c0-8.284,6.716-15,15-15s15,6.716,15,15v33.2h33.2
	c8.284,0,15,6.716,15,15C415.6,360.685,408.884,367.4,400.6,367.4z"/>
<path style="fill:#FE4C72;" d="M448.801,32.134H15c-8.284,0-15,6.716-15,15v96.399c0,8.284,6.716,15,15,15h433.801
	c8.284,0,15-6.716,15-15V47.134C463.801,38.85,457.085,32.134,448.801,32.134z"/>
<path style="fill:#CF1F62;" d="M448.801,32.134H231.9v126.399h216.9c8.284,0,15-6.716,15-15V47.134
	C463.801,38.85,457.085,32.134,448.801,32.134z"/>
<g>
	<path style="fill:#663E2C;" d="M103.367,62.134c-8.284,0-15-6.716-15-15V15c0-8.284,6.716-15,15-15s15,6.716,15,15v32.134
		C118.367,55.418,111.651,62.134,103.367,62.134z"/>
	<path style="fill:#663E2C;" d="M231.9,62.134c-8.284,0-15-6.716-15-15V15c0-8.284,6.716-15,15-15s15,6.716,15,15v32.134
		C246.9,55.418,240.185,62.134,231.9,62.134z"/>
</g>
<g>
	<path style="fill:#482F21;" d="M360.434,62.134c-8.284,0-15-6.716-15-15V15c0-8.284,6.716-15,15-15s15,6.716,15,15v32.134
		C375.434,55.418,368.718,62.134,360.434,62.134z"/>
	<path style="fill:#482F21;" d="M231.9,0v62.134c8.284,0,15-6.716,15-15V15C246.9,6.716,240.185,0,231.9,0z"/>
</g>
<path style="fill:#002B4F;" d="M352.4,192.801v30c71.462,0,129.6,58.138,129.6,129.6S423.862,482,352.4,482v30
	c88.004,0,159.6-71.596,159.6-159.6S440.404,192.801,352.4,192.801z"/>
<path style="fill:#482F21;" d="M415.6,352.4c0-8.284-6.716-15-15-15h-33.2v-33.2c0-8.284-6.716-15-15-15v78.2h48.2
	C408.884,367.4,415.6,360.685,415.6,352.4z"/>
<g>
</g>
<g>
</g>
<g>
</g>
<g>
</g>
<g>
</g>
<g>
</g>
<g>
</g>
<g>
</g>
<g>
</g>
<g>
</g>
<g>
</g>
<g>
</g>
<g>
</g>
<g>
</g>
<g>
</g>
</svg>
